<svg width="14" height="20" viewBox="0 0 14 20" fill="none" xmlns="http://www.w3.org/2000/svg">
<path d="M12.2064 0H8.96764C5.34028 0 2.9825 1.93146 2.9825 4.92212V7.18588H0C0 7.18588 5.88127e-05 7.37279 5.88127e-05 7.60125V10.8827C5.88127e-05 11.1111 8.17222e-05 11.298 8.17222e-05 11.298H3.00841V20C2.99423 19.9996 3.2416 20 3.5266 20H7.77579C8.0608 20 8.98225 19.9996 8.98225 19.9996V11.2496H11.9763C12.5983 11.222 12.6209 11.2496 12.6209 11.2496V7.58048C12.6209 7.47664 12.6209 7.16511 12.6209 7.16511C12.6209 7.16511 12.2323 7.16511 12.1027 7.16511H8.98225V5.25441C8.98225 4.3406 9.26726 3.86293 10.7441 3.86293L13.1411 3.8633V3.75V0C13.1411 0 12.4914 0 12.2064 0Z" fill="white"/>
</svg>
