<svg width="21" height="20" viewBox="0 0 21 20" fill="none" xmlns="http://www.w3.org/2000/svg">
<path d="M14.9681 0H6.02009C2.97045 0 0.5 2.47045 0.5 5.52009V14.4799C0.5 17.5177 2.97045 20 6.02009 20H14.9799C18.0177 20 20.5 17.5296 20.5 14.4799V5.52009C20.4882 2.47045 18.0059 0 14.9681 0ZM18.7151 14.4681C18.7151 16.5366 17.0366 18.2151 14.9681 18.2151H6.02009C3.95154 18.2151 2.27305 16.5366 2.27305 14.4681V5.52009C2.27305 3.45154 3.95154 1.77305 6.02009 1.77305H14.9799C17.0485 1.77305 18.7269 3.45154 18.7269 5.52009L18.7151 14.4681Z" fill="white"/>
<path d="M10.4885 5C7.73624 5 5.5 7.23881 5.5 9.99426C5.5 12.7497 7.73624 15 10.5 15C13.2638 15 15.5 12.7612 15.5 9.99426C15.4885 7.23881 13.2523 5 10.4885 5ZM10.4885 13.2778C8.68807 13.2778 7.20872 11.8083 7.20872 9.99426C7.22018 8.19173 8.68807 6.72216 10.4885 6.72216C12.289 6.72216 13.7683 8.19173 13.7683 10.0057C13.7683 11.8083 12.3005 13.2778 10.4885 13.2778Z" fill="white"/>
<path d="M15.5 3.75C15.1705 3.75 14.8523 3.88636 14.6136 4.11364C14.375 4.34091 14.25 4.67045 14.25 5C14.25 5.32955 14.3864 5.64773 14.6136 5.88636C14.8409 6.11364 15.1705 6.25 15.5 6.25C15.8295 6.25 16.1477 6.11364 16.3864 5.88636C16.625 5.65909 16.75 5.32955 16.75 5C16.75 4.67045 16.6136 4.35227 16.3864 4.11364C16.1591 3.875 15.8295 3.75 15.5 3.75Z" fill="white"/>
</svg>
