<svg width="21" height="17" viewBox="0 0 21 17" fill="none" xmlns="http://www.w3.org/2000/svg">
<path d="M20.5 2.01046C19.7646 2.35237 18.9736 2.58146 18.1434 2.68745C18.99 2.15748 19.6404 1.31295 19.9476 0.314562C19.1534 0.806919 18.2741 1.16251 17.3394 1.3574C16.5909 0.51971 15.5253 0 14.3454 0C12.0803 0 10.2402 1.92156 10.2402 4.29103C10.2402 4.62611 10.2761 4.95434 10.348 5.26891C6.93896 5.09111 3.91559 3.38154 1.88912 0.782985C1.53612 1.41895 1.33674 2.15406 1.33674 2.94047C1.33674 4.43121 2.06235 5.74417 3.16057 6.51347C2.48725 6.48954 1.85643 6.29807 1.30078 5.97325V6.02796C1.30078 8.1068 2.71605 9.84372 4.59217 10.2369C4.24898 10.3327 3.88617 10.3874 3.5103 10.3874C3.24555 10.3874 2.9906 10.36 2.73893 10.3087C3.26189 12.0149 4.77521 13.256 6.57289 13.2902C5.1707 14.4425 3.39917 15.1263 1.47728 15.1263C1.14716 15.1263 0.820314 15.1058 0.5 15.0682C2.31729 16.2888 4.47124 17 6.78861 17C14.3356 17 18.4637 10.4592 18.4637 4.78681L18.4506 4.22949C19.2547 3.62771 19.9509 2.87208 20.5 2.01046Z" fill="white"/>
</svg>
